<svg xmlns="http://www.w3.org/2000/svg" width="20" height="20"><path d="M18.88484,10.91274v6.26602h-10.1205l1.98942-1.98942h6.22148v-2.26612h-3.95536l2.01049-2.01049l3.85447.00001Z" opacity="0.33" stroke-width="0"/><path d="M0.9645,9.17876v-6.26602h10.12693L9.08094,4.92322h-6.10447v2.26612h3.83835L4.8254,9.17876h-3.8609ZM18.88484,2.91274v4.0934l-1.9096-1.9096v-.17331h-.17331L14.79144,2.91275l4.0934-.00001Zm0,6.26602h-2.12051l2.12051-2.12051v2.12051Z" opacity="0.33" stroke-width="0"/><path d="M12.879,2.165L3.414,11.636l4.95,4.95l9.465-9.471Zm0,2.829L15,7.115L8.364,13.758L6.243,11.636ZM6.95,18L2,18v-4.95Z" opacity="0.33"/></svg>
